<svg width="30" height="30" viewBox="0 0 30 30" fill="none" xmlns="http://www.w3.org/2000/svg">
<path d="M15 2.5V3.75M3.75 15H2.5M6.875 6.875L6.12488 6.12488M23.125 6.875L23.8753 6.12488M27.5 15H26.25M12.5 16.875H17.5M15 16.875V23.125M19.375 21.0924C21.2676 19.731 22.5 17.5094 22.5 15C22.5 10.8579 19.1421 7.5 15 7.5C10.8579 7.5 7.5 10.8579 7.5 15C7.5 17.5094 8.73241 19.731 10.625 21.0924V23.5C10.625 24.9001 10.625 25.6002 10.8975 26.135C11.1372 26.6054 11.5196 26.9878 11.99 27.2275C12.5248 27.5 13.2249 27.5 14.625 27.5H15.375C16.7751 27.5 17.4752 27.5 18.01 27.2275C18.4804 26.9878 18.8628 26.6054 19.1025 26.135C19.375 25.6002 19.375 24.9001 19.375 23.5V21.0924Z" stroke="white" stroke-width="2" stroke-linecap="round" stroke-linejoin="round"/>
</svg>
