<svg width="22" height="22" viewBox="0 0 22 22" fill="none" xmlns="http://www.w3.org/2000/svg">
<path d="M11 1C5.4823 1 1 5.4823 1 11C1 16.5177 5.4823 21 11 21C16.5177 21 21 16.5177 21 11C21 5.4823 16.5177 1 11 1ZM11 1.86957C16.0478 1.86957 20.1304 5.95225 20.1304 11C20.1304 16.0477 16.0478 20.1304 11 20.1304C5.95225 20.1304 1.86957 16.0477 1.86957 11C1.86957 5.95225 5.95225 1.86957 11 1.86957ZM14.9513 6.23268C14.6539 6.23268 14.3197 6.30156 13.9288 6.44243C13.3219 6.66112 6.18293 9.69224 5.37075 10.037C4.90641 10.2344 4.04178 10.6016 4.04178 11.4772C4.04178 12.0577 4.3819 12.4728 5.05146 12.712C5.41146 12.8402 6.26648 13.0994 6.76257 13.2359C6.973 13.2937 7.19663 13.3234 7.42663 13.3234C7.87663 13.3234 8.32949 13.2112 8.68427 13.0134C8.68123 13.0865 8.68322 13.1603 8.69192 13.2342C8.74539 13.6907 9.0269 14.1201 9.44429 14.3832C9.71734 14.5553 11.9475 16.0496 12.2806 16.287C12.7484 16.6214 13.2656 16.7982 13.7751 16.7982C14.749 16.7982 15.0758 15.7927 15.2332 15.3096C15.4614 14.6083 16.3162 8.90528 16.4127 7.89963C16.4784 7.2105 16.1911 6.64302 15.6442 6.38128C15.4394 6.28259 15.2056 6.23268 14.9513 6.23268ZM14.9513 7.10224C15.0708 7.10224 15.1776 7.12202 15.268 7.16593C15.4737 7.26463 15.5783 7.48465 15.5465 7.81726C15.4413 8.91421 14.5887 14.4822 14.4069 15.0404C14.2513 15.5178 14.0873 15.9287 13.7751 15.9287C13.463 15.9287 13.1219 15.8192 12.7858 15.5788C12.4497 15.3388 10.2179 13.8421 9.90795 13.6469C9.63621 13.4756 9.34861 13.0486 9.7534 12.6355C10.0869 12.2955 12.6165 9.84041 12.8325 9.62432C12.9934 9.46302 12.9182 9.26851 12.7604 9.26851C12.706 9.26851 12.6409 9.29142 12.5735 9.34664C12.3092 9.56272 8.62382 12.0288 8.30469 12.2271C8.09338 12.3584 7.7662 12.453 7.42663 12.453C7.28185 12.453 7.13527 12.4356 6.9944 12.3969C6.50396 12.2617 5.67399 12.0099 5.34443 11.8925C5.02747 11.7795 4.91219 11.6712 4.91219 11.4772C4.91219 11.2016 5.30128 11.0113 5.71128 10.837C6.14432 10.653 13.6374 7.47106 14.2235 7.26019C14.4948 7.16193 14.743 7.10224 14.9513 7.10224Z" fill="black" stroke="black" stroke-width="0.9"/>
</svg>
